# Tiled2Unity generated file. Do not modify by hand.
# Wavefront file for 'Full-Dungeon_mesh_0008.obj'

# Vertices (Count = 20)
v -480 -192 0
v -496 -192 0
v -496 -176 0
v -480 -176 0
v -464 -192 0
v -480 -192 0
v -480 -176 0
v -464 -176 0
v -480 -208 0
v -496 -208 0
v -496 -192 0
v -480 -192 0
v -464 -208 0
v -480 -208 0
v -480 -192 0
v -464 -192 0
v -704 -752 0
v -720 -752 0
v -720 -736 0
v -704 -736 0

# Texture cooridinates (Count = 16)
vt 0.03455285 0.390164
vt 0.06707317 0.390164
vt 0.06707317 0.442623
vt 0.03455285 0.442623
vt 0.06910569 0.2786885
vt 0.101626 0.2786885
vt 0.101626 0.3311476
vt 0.06910569 0.3311476
vt 0 0.2786885
vt 0.03252032 0.2786885
vt 0.03252032 0.3311476
vt 0 0.3311476
vt 0 0.8360656
vt 0.03252032 0.8360656
vt 0.03252032 0.8885246
vt 0 0.8885246

# Normal
vn 0 0 -1

# Mesh description
g Full-Dungeon_mesh_0008

# Faces
f 1/1/1 2/2/1 3/3/1 4/4/1
f 5/1/1 6/2/1 7/3/1 8/4/1
f 9/5/1 10/6/1 11/7/1 12/8/1
f 13/9/1 14/10/1 15/11/1 16/12/1
f 17/13/1 18/14/1 19/15/1 20/16/1

