# Tiled2Unity generated file. Do not modify by hand.
# Wavefront file for 'Full-Dungeon_mesh_0009.obj'

# Vertices (Count = 40)
v -624 -544 0
v -640 -544 0
v -640 -528 0
v -624 -528 0
v -1008 -912 0
v -1024 -912 0
v -1024 -896 0
v -1008 -896 0
v -1008 -928 0
v -1024 -928 0
v -1024 -912 0
v -1008 -912 0
v -1024 -944 0
v -1040 -944 0
v -1040 -928 0
v -1024 -928 0
v -992 -944 0
v -1008 -944 0
v -1008 -928 0
v -992 -928 0
v -960 -944 0
v -976 -944 0
v -976 -928 0
v -960 -928 0
v -1024 -960 0
v -1040 -960 0
v -1040 -944 0
v -1024 -944 0
v -944 -960 0
v -960 -960 0
v -960 -944 0
v -944 -944 0
v -1008 -976 0
v -1024 -976 0
v -1024 -960 0
v -1008 -960 0
v -976 -976 0
v -992 -976 0
v -992 -960 0
v -976 -960 0

# Texture cooridinates (Count = 36)
vt 0.6673554 0.6463878
vt 0.6838843 0.6463878
vt 0.6838843 0.6768061
vt 0.6673554 0.6768061
vt 0.5268595 0.6787072
vt 0.5433884 0.6787072
vt 0.5433884 0.7091255
vt 0.5268595 0.7091255
vt 0.6146694 0.6787072
vt 0.6311983 0.6787072
vt 0.6311983 0.7091255
vt 0.6146694 0.7091255
vt 0.5092975 0.6787072
vt 0.5258265 0.6787072
vt 0.5258265 0.7091255
vt 0.5092975 0.7091255
vt 0.5619835 0.6787072
vt 0.5785124 0.6787072
vt 0.5785124 0.7091255
vt 0.5619835 0.7091255
vt 0.5444215 0.6787072
vt 0.5609504 0.6787072
vt 0.5609504 0.7091255
vt 0.5444215 0.7091255
vt 0.6322314 0.6787072
vt 0.6487603 0.6787072
vt 0.6487603 0.7091255
vt 0.6322314 0.7091255
vt 0.5795454 0.6787072
vt 0.5960744 0.6787072
vt 0.5960744 0.7091255
vt 0.5795454 0.7091255
vt 0.4917355 0.6787072
vt 0.5082645 0.6787072
vt 0.5082645 0.7091255
vt 0.4917355 0.7091255

# Normal
vn 0 0 -1

# Mesh description
g Full-Dungeon_mesh_0009

# Faces
f 1/1/1 2/2/1 3/3/1 4/4/1
f 5/1/1 6/2/1 7/3/1 8/4/1
f 9/5/1 10/6/1 11/7/1 12/8/1
f 13/9/1 14/10/1 15/11/1 16/12/1
f 17/13/1 18/14/1 19/15/1 20/16/1
f 21/17/1 22/18/1 23/19/1 24/20/1
f 25/21/1 26/22/1 27/23/1 28/24/1
f 29/25/1 30/26/1 31/27/1 32/28/1
f 33/29/1 34/30/1 35/31/1 36/32/1
f 37/33/1 38/34/1 39/35/1 40/36/1

