# Tiled2Unity generated file. Do not modify by hand.
# Wavefront file for 'Full-Dungeon_mesh_0007.obj'

# Vertices (Count = 128)
v -224 -176 0
v -240 -176 0
v -240 -160 0
v -224 -160 0
v -192 -176 0
v -208 -176 0
v -208 -160 0
v -192 -160 0
v -512 -192 0
v -528 -192 0
v -528 -176 0
v -512 -176 0
v -432 -192 0
v -448 -192 0
v -448 -176 0
v -432 -176 0
v -624 -224 0
v -640 -224 0
v -640 -208 0
v -624 -208 0
v -624 -256 0
v -640 -256 0
v -640 -240 0
v -624 -240 0
v -304 -256 0
v -320 -256 0
v -320 -240 0
v -304 -240 0
v -272 -256 0
v -288 -256 0
v -288 -240 0
v -272 -240 0
v -672 -272 0
v -688 -272 0
v -688 -256 0
v -672 -256 0
v -640 -272 0
v -656 -272 0
v -656 -256 0
v -640 -256 0
v -304 -304 0
v -320 -304 0
v -320 -288 0
v -304 -288 0
v -272 -304 0
v -288 -304 0
v -288 -288 0
v -272 -288 0
v -512 -368 0
v -528 -368 0
v -528 -352 0
v -512 -352 0
v -688 -416 0
v -704 -416 0
v -704 -400 0
v -688 -400 0
v -624 -416 0
v -640 -416 0
v -640 -400 0
v -624 -400 0
v -384 -416 0
v -400 -416 0
v -400 -400 0
v -384 -400 0
v -304 -496 0
v -320 -496 0
v -320 -480 0
v -304 -480 0
v -432 -512 0
v -448 -512 0
v -448 -496 0
v -432 -496 0
v -496 -544 0
v -512 -544 0
v -512 -528 0
v -496 -528 0
v -176 -576 0
v -192 -576 0
v -192 -560 0
v -176 -560 0
v -608 -656 0
v -624 -656 0
v -624 -640 0
v -608 -640 0
v -704 -800 0
v -720 -800 0
v -720 -784 0
v -704 -784 0
v -1024 -880 0
v -1040 -880 0
v -1040 -864 0
v -1024 -864 0
v -976 -880 0
v -992 -880 0
v -992 -864 0
v -976 -864 0
v -608 -880 0
v -624 -880 0
v -624 -864 0
v -608 -864 0
v -576 -880 0
v -592 -880 0
v -592 -864 0
v -576 -864 0
v -912 -944 0
v -928 -944 0
v -928 -928 0
v -912 -928 0
v -800 -944 0
v -816 -944 0
v -816 -928 0
v -800 -928 0
v -912 -976 0
v -928 -976 0
v -928 -960 0
v -912 -960 0
v -816 -976 0
v -832 -976 0
v -832 -960 0
v -816 -960 0
v -560 -1008 0
v -576 -1008 0
v -576 -992 0
v -560 -992 0
v -784 -1040 0
v -800 -1040 0
v -800 -1024 0
v -784 -1024 0

# Texture cooridinates (Count = 4)
vt 0.4837398 0
vt 0.5162601 0
vt 0.5162601 0.052459
vt 0.4837398 0.052459

# Normal
vn 0 0 -1

# Mesh description
g Full-Dungeon_mesh_0007

# Faces
f 1/1/1 2/2/1 3/3/1 4/4/1
f 5/1/1 6/2/1 7/3/1 8/4/1
f 9/1/1 10/2/1 11/3/1 12/4/1
f 13/1/1 14/2/1 15/3/1 16/4/1
f 17/1/1 18/2/1 19/3/1 20/4/1
f 21/1/1 22/2/1 23/3/1 24/4/1
f 25/1/1 26/2/1 27/3/1 28/4/1
f 29/1/1 30/2/1 31/3/1 32/4/1
f 33/1/1 34/2/1 35/3/1 36/4/1
f 37/1/1 38/2/1 39/3/1 40/4/1
f 41/1/1 42/2/1 43/3/1 44/4/1
f 45/1/1 46/2/1 47/3/1 48/4/1
f 49/1/1 50/2/1 51/3/1 52/4/1
f 53/1/1 54/2/1 55/3/1 56/4/1
f 57/1/1 58/2/1 59/3/1 60/4/1
f 61/1/1 62/2/1 63/3/1 64/4/1
f 65/1/1 66/2/1 67/3/1 68/4/1
f 69/1/1 70/2/1 71/3/1 72/4/1
f 73/1/1 74/2/1 75/3/1 76/4/1
f 77/1/1 78/2/1 79/3/1 80/4/1
f 81/1/1 82/2/1 83/3/1 84/4/1
f 85/1/1 86/2/1 87/3/1 88/4/1
f 89/1/1 90/2/1 91/3/1 92/4/1
f 93/1/1 94/2/1 95/3/1 96/4/1
f 97/1/1 98/2/1 99/3/1 100/4/1
f 101/1/1 102/2/1 103/3/1 104/4/1
f 105/1/1 106/2/1 107/3/1 108/4/1
f 109/1/1 110/2/1 111/3/1 112/4/1
f 113/1/1 114/2/1 115/3/1 116/4/1
f 117/1/1 118/2/1 119/3/1 120/4/1
f 121/1/1 122/2/1 123/3/1 124/4/1
f 125/1/1 126/2/1 127/3/1 128/4/1

