# Tiled2Unity generated file. Do not modify by hand.
# Wavefront file for 'Test_mesh_0001.obj'

# Vertices (Count = 240)
v -560 -624 0
v -576 -624 0
v -576 -608 0
v -560 -608 0
v -544 -624 0
v -560 -624 0
v -560 -608 0
v -544 -608 0
v -528 -624 0
v -544 -624 0
v -544 -608 0
v -528 -608 0
v -512 -624 0
v -528 -624 0
v -528 -608 0
v -512 -608 0
v -496 -624 0
v -512 -624 0
v -512 -608 0
v -496 -608 0
v -480 -624 0
v -496 -624 0
v -496 -608 0
v -480 -608 0
v -464 -624 0
v -480 -624 0
v -480 -608 0
v -464 -608 0
v -448 -624 0
v -464 -624 0
v -464 -608 0
v -448 -608 0
v -432 -624 0
v -448 -624 0
v -448 -608 0
v -432 -608 0
v -416 -624 0
v -432 -624 0
v -432 -608 0
v -416 -608 0
v -560 -640 0
v -576 -640 0
v -576 -624 0
v -560 -624 0
v -544 -640 0
v -560 -640 0
v -560 -624 0
v -544 -624 0
v -528 -640 0
v -544 -640 0
v -544 -624 0
v -528 -624 0
v -512 -640 0
v -528 -640 0
v -528 -624 0
v -512 -624 0
v -496 -640 0
v -512 -640 0
v -512 -624 0
v -496 -624 0
v -480 -640 0
v -496 -640 0
v -496 -624 0
v -480 -624 0
v -464 -640 0
v -480 -640 0
v -480 -624 0
v -464 -624 0
v -448 -640 0
v -464 -640 0
v -464 -624 0
v -448 -624 0
v -432 -640 0
v -448 -640 0
v -448 -624 0
v -432 -624 0
v -416 -640 0
v -432 -640 0
v -432 -624 0
v -416 -624 0
v -560 -656 0
v -576 -656 0
v -576 -640 0
v -560 -640 0
v -544 -656 0
v -560 -656 0
v -560 -640 0
v -544 -640 0
v -528 -656 0
v -544 -656 0
v -544 -640 0
v -528 -640 0
v -512 -656 0
v -528 -656 0
v -528 -640 0
v -512 -640 0
v -496 -656 0
v -512 -656 0
v -512 -640 0
v -496 -640 0
v -480 -656 0
v -496 -656 0
v -496 -640 0
v -480 -640 0
v -464 -656 0
v -480 -656 0
v -480 -640 0
v -464 -640 0
v -448 -656 0
v -464 -656 0
v -464 -640 0
v -448 -640 0
v -432 -656 0
v -448 -656 0
v -448 -640 0
v -432 -640 0
v -416 -656 0
v -432 -656 0
v -432 -640 0
v -416 -640 0
v -560 -672 0
v -576 -672 0
v -576 -656 0
v -560 -656 0
v -544 -672 0
v -560 -672 0
v -560 -656 0
v -544 -656 0
v -528 -672 0
v -544 -672 0
v -544 -656 0
v -528 -656 0
v -512 -672 0
v -528 -672 0
v -528 -656 0
v -512 -656 0
v -496 -672 0
v -512 -672 0
v -512 -656 0
v -496 -656 0
v -480 -672 0
v -496 -672 0
v -496 -656 0
v -480 -656 0
v -464 -672 0
v -480 -672 0
v -480 -656 0
v -464 -656 0
v -448 -672 0
v -464 -672 0
v -464 -656 0
v -448 -656 0
v -432 -672 0
v -448 -672 0
v -448 -656 0
v -432 -656 0
v -416 -672 0
v -432 -672 0
v -432 -656 0
v -416 -656 0
v -560 -688 0
v -576 -688 0
v -576 -672 0
v -560 -672 0
v -544 -688 0
v -560 -688 0
v -560 -672 0
v -544 -672 0
v -528 -688 0
v -544 -688 0
v -544 -672 0
v -528 -672 0
v -512 -688 0
v -528 -688 0
v -528 -672 0
v -512 -672 0
v -496 -688 0
v -512 -688 0
v -512 -672 0
v -496 -672 0
v -480 -688 0
v -496 -688 0
v -496 -672 0
v -480 -672 0
v -464 -688 0
v -480 -688 0
v -480 -672 0
v -464 -672 0
v -448 -688 0
v -464 -688 0
v -464 -672 0
v -448 -672 0
v -432 -688 0
v -448 -688 0
v -448 -672 0
v -432 -672 0
v -416 -688 0
v -432 -688 0
v -432 -672 0
v -416 -672 0
v -560 -704 0
v -576 -704 0
v -576 -688 0
v -560 -688 0
v -544 -704 0
v -560 -704 0
v -560 -688 0
v -544 -688 0
v -528 -704 0
v -544 -704 0
v -544 -688 0
v -528 -688 0
v -512 -704 0
v -528 -704 0
v -528 -688 0
v -512 -688 0
v -496 -704 0
v -512 -704 0
v -512 -688 0
v -496 -688 0
v -480 -704 0
v -496 -704 0
v -496 -688 0
v -480 -688 0
v -464 -704 0
v -480 -704 0
v -480 -688 0
v -464 -688 0
v -448 -704 0
v -464 -704 0
v -464 -688 0
v -448 -688 0
v -432 -704 0
v -448 -704 0
v -448 -688 0
v -432 -688 0
v -416 -704 0
v -432 -704 0
v -432 -688 0
v -416 -688 0

# Texture cooridinates (Count = 36)
vt 0.05414013 0.07157892
vt 0.07961784 0.07157892
vt 0.07961784 0.1052632
vt 0.05414013 0.1052632
vt 0.02707006 0.07157892
vt 0.05254777 0.07157892
vt 0.05254777 0.1052632
vt 0.02707006 0.1052632
vt 0 0.07157892
vt 0.02547771 0.07157892
vt 0.02547771 0.1052632
vt 0 0.1052632
vt 0.05414013 0.03578949
vt 0.07961784 0.03578949
vt 0.07961784 0.06947368
vt 0.05414013 0.06947368
vt 0.02707006 0.03578949
vt 0.05254777 0.03578949
vt 0.05254777 0.06947368
vt 0.02707006 0.06947368
vt 0 0.03578949
vt 0.02547771 0.03578949
vt 0.02547771 0.06947368
vt 0 0.06947368
vt 0.05414013 0
vt 0.07961784 0
vt 0.07961784 0.03368419
vt 0.05414013 0.03368419
vt 0.02707006 0
vt 0.05254777 0
vt 0.05254777 0.03368419
vt 0.02707006 0.03368419
vt 0 0
vt 0.02547771 0
vt 0.02547771 0.03368419
vt 0 0.03368419

# Normal
vn 0 0 -1

# Mesh description
g Test_mesh_0001

# Faces
f 1/1/1 2/2/1 3/3/1 4/4/1
f 5/5/1 6/6/1 7/7/1 8/8/1
f 9/5/1 10/6/1 11/7/1 12/8/1
f 13/5/1 14/6/1 15/7/1 16/8/1
f 17/5/1 18/6/1 19/7/1 20/8/1
f 21/5/1 22/6/1 23/7/1 24/8/1
f 25/5/1 26/6/1 27/7/1 28/8/1
f 29/5/1 30/6/1 31/7/1 32/8/1
f 33/5/1 34/6/1 35/7/1 36/8/1
f 37/9/1 38/10/1 39/11/1 40/12/1
f 41/13/1 42/14/1 43/15/1 44/16/1
f 45/17/1 46/18/1 47/19/1 48/20/1
f 49/17/1 50/18/1 51/19/1 52/20/1
f 53/17/1 54/18/1 55/19/1 56/20/1
f 57/17/1 58/18/1 59/19/1 60/20/1
f 61/17/1 62/18/1 63/19/1 64/20/1
f 65/17/1 66/18/1 67/19/1 68/20/1
f 69/17/1 70/18/1 71/19/1 72/20/1
f 73/17/1 74/18/1 75/19/1 76/20/1
f 77/21/1 78/22/1 79/23/1 80/24/1
f 81/13/1 82/14/1 83/15/1 84/16/1
f 85/17/1 86/18/1 87/19/1 88/20/1
f 89/17/1 90/18/1 91/19/1 92/20/1
f 93/17/1 94/18/1 95/19/1 96/20/1
f 97/17/1 98/18/1 99/19/1 100/20/1
f 101/17/1 102/18/1 103/19/1 104/20/1
f 105/17/1 106/18/1 107/19/1 108/20/1
f 109/17/1 110/18/1 111/19/1 112/20/1
f 113/17/1 114/18/1 115/19/1 116/20/1
f 117/21/1 118/22/1 119/23/1 120/24/1
f 121/13/1 122/14/1 123/15/1 124/16/1
f 125/17/1 126/18/1 127/19/1 128/20/1
f 129/17/1 130/18/1 131/19/1 132/20/1
f 133/17/1 134/18/1 135/19/1 136/20/1
f 137/17/1 138/18/1 139/19/1 140/20/1
f 141/17/1 142/18/1 143/19/1 144/20/1
f 145/17/1 146/18/1 147/19/1 148/20/1
f 149/17/1 150/18/1 151/19/1 152/20/1
f 153/17/1 154/18/1 155/19/1 156/20/1
f 157/21/1 158/22/1 159/23/1 160/24/1
f 161/13/1 162/14/1 163/15/1 164/16/1
f 165/17/1 166/18/1 167/19/1 168/20/1
f 169/17/1 170/18/1 171/19/1 172/20/1
f 173/17/1 174/18/1 175/19/1 176/20/1
f 177/17/1 178/18/1 179/19/1 180/20/1
f 181/17/1 182/18/1 183/19/1 184/20/1
f 185/17/1 186/18/1 187/19/1 188/20/1
f 189/17/1 190/18/1 191/19/1 192/20/1
f 193/17/1 194/18/1 195/19/1 196/20/1
f 197/21/1 198/22/1 199/23/1 200/24/1
f 201/25/1 202/26/1 203/27/1 204/28/1
f 205/29/1 206/30/1 207/31/1 208/32/1
f 209/29/1 210/30/1 211/31/1 212/32/1
f 213/29/1 214/30/1 215/31/1 216/32/1
f 217/29/1 218/30/1 219/31/1 220/32/1
f 221/29/1 222/30/1 223/31/1 224/32/1
f 225/29/1 226/30/1 227/31/1 228/32/1
f 229/29/1 230/30/1 231/31/1 232/32/1
f 233/29/1 234/30/1 235/31/1 236/32/1
f 237/33/1 238/34/1 239/35/1 240/36/1

